<svg width="0" height="0" class="hidden">
<!-- UXWing -->
    <symbol xmlns="http://www.w3.org/2000/svg" viewBox="0 0 24 24" id="visibility">
        <path d="M0 0h24v24H0V0z" fill="none"></path>
        <path d="M12 6c3.79 0 7.17 2.13 8.82 5.5C19.17 14.87 15.79 17 12 17s-7.17-2.13-8.82-5.5C4.83 8.13 8.21 6 12 6m0-2C7 4 2.73 7.11 1 11.5 2.73 15.89 7 19 12 19s9.27-3.11 11-7.5C21.27 7.11 17 4 12 4zm0 5c1.38 0 2.5 1.12 2.5 2.5S13.38 14 12 14s-2.5-1.12-2.5-2.5S10.62 9 12 9m0-2c-2.48 0-4.5 2.02-4.5 4.5S9.52 16 12 16s4.5-2.02 4.5-4.5S14.48 7 12 7z"></path>
    </symbol>
    <symbol xmlns="http://www.w3.org/2000/svg" viewBox="0 0 24 24" id="chevron_right">
        <path d="M0 0h24v24H0V0z" fill="none"></path>
        <path d="M10 6L8.59 7.41 13.17 12l-4.58 4.59L10 18l6-6-6-6z"></path>
    </symbol>
    <symbol xmlns="http://www.w3.org/2000/svg" viewBox="0 0 24 24" id="chevron_left">
        <path d="M0 0h24v24H0V0z" fill="none"></path>
        <path d="M15.41 7.41L14 6l-6 6 6 6 1.41-1.41L10.83 12l4.58-4.59z"></path>
    </symbol>
    <symbol xmlns="http://www.w3.org/2000/svg" viewBox="0 0 24 24" id="share">
        <path d="M0 0h24v24H0V0z" fill="none"></path>
        <path d="M18 16.08c-.76 0-1.44.3-1.96.77L8.91 12.7c.05-.23.09-.46.09-.7s-.04-.47-.09-.7l7.05-4.11c.54.5 1.25.81 2.04.81 1.66 0 3-1.34 3-3s-1.34-3-3-3-3 1.34-3 3c0 .24.04.47.09.7L8.04 9.81C7.5 9.31 6.79 9 6 9c-1.66 0-3 1.34-3 3s1.34 3 3 3c.79 0 1.5-.31 2.04-.81l7.12 4.16c-.05.21-.08.43-.08.65 0 1.61 1.31 2.92 2.92 2.92s2.92-1.31 2.92-2.92c0-1.61-1.31-2.92-2.92-2.92zM18 4c.55 0 1 .45 1 1s-.45 1-1 1-1-.45-1-1 .45-1 1-1zM6 13c-.55 0-1-.45-1-1s.45-1 1-1 1 .45 1 1-.45 1-1 1zm12 7.02c-.55 0-1-.45-1-1s.45-1 1-1 1 .45 1 1-.45 1-1 1z"></path>
        </symbol>
        <symbol xmlns="http://www.w3.org/2000/svg" viewBox="0 0 24 24" id="search">
            <path d="M0 0h24v24H0V0z" fill="none"></path>
            <path d="M15.5 14h-.79l-.28-.27C15.41 12.59 16 11.11 16 9.5 16 5.91 13.09 3 9.5 3S3 5.91 3 9.5 5.91 16 9.5 16c1.61 0 3.09-.59 4.23-1.57l.27.28v.79l5 4.99L20.49 19l-4.99-5zm-6 0C7.01 14 5 11.99 5 9.5S7.01 5 9.5 5 14 7.01 14 9.5 11.99 14 9.5 14z"></path>
        </symbol>
        <symbol xmlns="http://www.w3.org/2000/svg" viewBox="0 0 24 24" id="home">
            <path d="M0 0h24v24H0V0z" fill="none"></path>
            <path d="M12 5.69l5 4.5V18h-2v-6H9v6H7v-7.81l5-4.5M12 3L2 12h3v8h6v-6h2v6h6v-8h3L12 3z"></path>
        </symbol>
        <symbol xmlns="http://www.w3.org/2000/svg" viewBox="0 0 24 24" id="settings">
        <path d="M0 0h24v24H0V0z" fill="none"></path>
        <path d="M19.43 12.98c.04-.32.07-.64.07-.98 0-.34-.03-.66-.07-.98l2.11-1.65c.19-.15.24-.42.12-.64l-2-3.46c-.09-.16-.26-.25-.44-.25-.06 0-.12.01-.17.03l-2.49 1c-.52-.4-1.08-.73-1.69-.98l-.38-2.65C14.46 2.18 14.25 2 14 2h-4c-.25 0-.46.18-.49.42l-.38 2.65c-.61.25-1.17.59-1.69.98l-2.49-1c-.06-.02-.12-.03-.18-.03-.17 0-.34.09-.43.25l-2 3.46c-.13.22-.07.49.12.64l2.11 1.65c-.04.32-.07.65-.07.98 0 .33.03.66.07.98l-2.11 1.65c-.19.15-.24.42-.12.64l2 3.46c.09.16.26.25.44.25.06 0 .12-.01.17-.03l2.49-1c.52.4 1.08.73 1.69.98l.38 2.65c.03.24.24.42.49.42h4c.25 0 .46-.18.49-.42l.38-2.65c.61-.25 1.17-.59 1.69-.98l2.49 1c.06.02.12.03.18.03.17 0 .34-.09.43-.25l2-3.46c.12-.22.07-.49-.12-.64l-2.11-1.65zm-1.98-1.71c.04.31.05.52.05.73 0 .21-.02.43-.05.73l-.14 1.13.89.7 1.08.84-.7 1.21-1.27-.51-1.04-.42-.9.68c-.43.32-.84.56-1.25.73l-1.06.43-.16 1.13-.2 1.35h-1.4l-.19-1.35-.16-1.13-1.06-.43c-.43-.18-.83-.41-1.23-.71l-.91-.7-1.06.43-1.27.51-.7-1.21 1.08-.84.89-.7-.14-1.13c-.03-.31-.05-.54-.05-.74s.02-.43.05-.73l.14-1.13-.89-.7-1.08-.84.7-1.21 1.27.51 1.04.42.9-.68c.43-.32.84-.56 1.25-.73l1.06-.43.16-1.13.2-1.35h1.39l.19 1.35.16 1.13 1.06.43c.43.18.83.41 1.23.71l.91.7 1.06-.43 1.27-.51.7 1.21-1.07.85-.89.7.14 1.13zM12 8c-2.21 0-4 1.79-4 4s1.79 4 4 4 4-1.79 4-4-1.79-4-4-4zm0 6c-1.1 0-2-.9-2-2s.9-2 2-2 2 .9 2 2-.9 2-2 2z"></path>
    </symbol>
    <symbol xmlns="http://www.w3.org/2000/svg" viewBox="0 0 24 24" id="bookmark_border">
        <path d="M0 0h24v24H0V0z" fill="none"></path>
        <path d="M17 3H7c-1.1 0-2 .9-2 2v16l7-3 7 3V5c0-1.1-.9-2-2-2zm0 15l-5-2.18L7 18V5h10v13z"></path>
    </symbol>
    <symbol xmlns="http://www.w3.org/2000/svg" viewBox="0 0 24 24" id="bookmark">
        <path d="M0 0h24v24H0V0z" fill="none"></path>
        <path d="M17 3H7c-1.1 0-2 .9-2 2v16l7-3 7 3V5c0-1.1-.9-2-2-2z"></path>
    </symbol>
    <symbol xmlns="http://www.w3.org/2000/svg" enable-background="new 0 0 24 24" viewBox="0 0 24 24" id="content_paste_go">
        <g>
        <rect fill="none" height="24" width="24"></rect>
        </g>
        <g>
        <g>
            <path d="M5,5h2v3h10V5h2v6h2V5c0-1.1-0.9-2-2-2h-4.18C14.4,1.84,13.3,1,12,1S9.6,1.84,9.18,3H5C3.9,3,3,3.9,3,5v14 c0,1.1,0.9,2,2,2h5v-2H5V5z M12,3c0.55,0,1,0.45,1,1s-0.45,1-1,1s-1-0.45-1-1S11.45,3,12,3z"></path>
            <polygon points="18.01,13 16.59,14.41 18.17,15.99 12,15.99 12,17.99 18.17,17.99 16.59,19.58 18.01,20.99 22,16.99"></polygon>
        </g>
        </g>
    </symbol>
    <symbol xmlns="http://www.w3.org/2000/svg" viewBox="0 0 24 24" id="content_copy">
        <path d="M0 0h24v24H0V0z" fill="none"></path>
        <path d="M16 1H4c-1.1 0-2 .9-2 2v14h2V3h12V1zm3 4H8c-1.1 0-2 .9-2 2v14c0 1.1.9 2 2 2h11c1.1 0 2-.9 2-2V7c0-1.1-.9-2-2-2zm0 16H8V7h11v14z"></path>
    </symbol>
    <symbol xmlns="http://www.w3.org/2000/svg" enable-background="new 0 0 24 24" viewBox="0 0 24 24" id="verified">
    <g>
      <rect fill="none" height="24" width="24"></rect>
    </g>
    <g>
      <g>
        <path d="M23,11.99l-2.44-2.79l0.34-3.69l-3.61-0.82L15.4,1.5L12,2.96L8.6,1.5L6.71,4.69L3.1,5.5L3.44,9.2L1,11.99l2.44,2.79 l-0.34,3.7l3.61,0.82L8.6,22.5l3.4-1.47l3.4,1.46l1.89-3.19l3.61-0.82l-0.34-3.69L23,11.99z M19.05,13.47l-0.56,0.65l0.08,0.85 l0.18,1.95l-1.9,0.43l-0.84,0.19l-0.44,0.74l-0.99,1.68l-1.78-0.77L12,18.85l-0.79,0.34l-1.78,0.77l-0.99-1.67l-0.44-0.74 l-0.84-0.19l-1.9-0.43l0.18-1.96l0.08-0.85l-0.56-0.65l-1.29-1.47l1.29-1.48l0.56-0.65L5.43,9.01L5.25,7.07l1.9-0.43l0.84-0.19 l0.44-0.74l0.99-1.68l1.78,0.77L12,5.14l0.79-0.34l1.78-0.77l0.99,1.68l0.44,0.74l0.84,0.19l1.9,0.43l-0.18,1.95l-0.08,0.85 l0.56,0.65l1.29,1.47L19.05,13.47z"></path>
        <polygon points="10.09,13.75 7.77,11.42 6.29,12.91 10.09,16.72 17.43,9.36 15.95,7.87"></polygon>
      </g>
    </g>
  </symbol>
  <symbol xmlns="http://www.w3.org/2000/svg" viewBox="0 0 24 24" id="error_outline">
    <path d="M11 15h2v2h-2v-2zm0-8h2v6h-2V7zm.99-5C6.47 2 2 6.48 2 12s4.47 10 9.99 10C17.52 22 22 17.52 22 12S17.52 2 11.99 2zM12 20c-4.42 0-8-3.58-8-8s3.58-8 8-8 8 3.58 8 8-3.58 8-8 8z"></path>
  </symbol>
  <symbol xmlns="http://www.w3.org/2000/svg" viewBox="0 0 24 24" id="hourglass_empty">
    <path d="M0 0h24v24H0V0z" fill="none"></path>
    <path d="M6 2v6h.01L6 8.01 10 12l-4 4 .01.01H6V22h12v-5.99h-.01L18 16l-4-4 4-3.99-.01-.01H18V2H6zm10 14.5V20H8v-3.5l4-4 4 4zm-4-5l-4-4V4h8v3.5l-4 4z"></path>
  </symbol>
  <symbol xmlns="http://www.w3.org/2000/svg" viewBox="0 0 24 24" id="refresh">
    <path d="M0 0h24v24H0V0z" fill="none"></path>
    <path d="M17.65 6.35C16.2 4.9 14.21 4 12 4c-4.42 0-7.99 3.58-7.99 8s3.57 8 7.99 8c3.73 0 6.84-2.55 7.73-6h-2.08c-.82 2.33-3.04 4-5.65 4-3.31 0-6-2.69-6-6s2.69-6 6-6c1.66 0 3.14.69 4.22 1.78L13 11h7V4l-2.35 2.35z"></path>
  </symbol>
  <symbol xmlns="http://www.w3.org/2000/svg" viewBox="0 0 24 24" id="link">
    <path d="M0 0h24v24H0V0z" fill="none"></path>
    <path d="M17 7h-4v2h4c1.65 0 3 1.35 3 3s-1.35 3-3 3h-4v2h4c2.76 0 5-2.24 5-5s-2.24-5-5-5zm-6 8H7c-1.65 0-3-1.35-3-3s1.35-3 3-3h4V7H7c-2.76 0-5 2.24-5 5s2.24 5 5 5h4v-2zm-3-4h8v2H8z"></path>
  </symbol>
  <symbol xmlns="http://www.w3.org/2000/svg" shape-rendering="geometricPrecision" text-rendering="geometricPrecision" image-rendering="optimizeQuality" fill-rule="evenodd" clip-rule="evenodd" viewBox="0 0 466 512.14" id="protected">
    <path d="M232.2 0c86.89 55.08 165.39 81.13 232.75 74.98 11.77 237.97-76.11 378.5-231.86 437.16C82.7 457.24-6.26 322.75.34 71.36 79.42 75.5 157.01 58.41 232.2 0zm46.25 220.22v-16.84c0-13.26-5.16-25.28-13.48-33.95-8.22-8.57-19.54-13.9-31.98-13.9-12.43 0-23.75 5.33-31.97 13.9-8.32 8.67-13.48 20.69-13.48 33.95v16.84h90.91zm-111.23 0v-16.84c0-18.65 7.35-35.64 19.19-47.99 11.95-12.45 28.43-20.18 46.59-20.18 18.16 0 34.65 7.72 46.58 20.18 11.85 12.35 19.2 29.34 19.2 47.99v16.84h7.27c5.9 0 10.73 4.83 10.73 10.73v113.42c0 5.91-4.83 10.74-10.73 10.74h-146.1c-5.91 0-10.73-4.83-10.73-10.74V230.95c-.01-5.9 4.82-10.73 10.73-10.73h7.27zm56.97 72.44-11.59 30.33h40.79l-10.73-30.75c6.81-3.5 11.46-10.6 11.46-18.78 0-11.68-9.45-21.13-21.13-21.13-11.66 0-21.12 9.45-21.12 21.13 0 8.51 5.05 15.85 12.32 19.2zm8.16-253.02c72.06 45.67 141.22 71.35 197.09 66.24 9.76 197.35-67.19 317.97-196.33 366.61C108.37 426.97 30.53 311.37 36 102.89c72.38 3.79 138.71-18.47 196.35-63.25z"></path>
  </symbol>

  <!-- Rich Text Editor svgs -->
  <symbol xmlns="http://www.w3.org/2000/svg" viewBox="0 0 24 24" id="font-color">
    <path fill="none" d="M0 0h24v24H0z"></path>
    <path d="M15.246 14H8.754l-1.6 4H5l6-15h2l6 15h-2.154l-1.6-4zm-.8-2L12 5.885 9.554 12h4.892zM3 20h18v2H3v-2z" ></path>
  </symbol>
  <symbol xmlns="http://www.w3.org/2000/svg" viewBox="0 0 24 24" id="font-size">
    <path fill="none" d="M0 0h24v24H0z"></path>
    <path d="M11.246 15H4.754l-2 5H.6L7 4h2l6.4 16h-2.154l-2-5zm-.8-2L8 6.885 5.554 13h4.892zM21 12.535V12h2v8h-2v-.535a4 4 0 1 1 0-6.93zM19 18a2 2 0 1 0 0-4 2 2 0 0 0 0 4z" ></path>
  </symbol>
  <symbol xmlns="http://www.w3.org/2000/svg" viewBox="0 0 24 24" id="h-1">
    <path fill="none" d="M0 0H24V24H0z"></path>
    <path d="M13 20h-2v-7H4v7H2V4h2v7h7V4h2v16zm8-12v12h-2v-9.796l-2 .536V8.67L19.5 8H21z" ></path>
  </symbol>
  <symbol xmlns="http://www.w3.org/2000/svg" viewBox="0 0 24 24" id="h-2">
    <path fill="none" d="M0 0H24V24H0z"></path>
    <path d="M4 4v7h7V4h2v16h-2v-7H4v7H2V4h2zm14.5 4c2.071 0 3.75 1.679 3.75 3.75 0 .857-.288 1.648-.772 2.28l-.148.18L18.034 18H22v2h-7v-1.556l4.82-5.546c.268-.307.43-.709.43-1.148 0-.966-.784-1.75-1.75-1.75-.918 0-1.671.707-1.744 1.606l-.006.144h-2C14.75 9.679 16.429 8 18.5 8z" ></path>
  </symbol>
  <symbol xmlns="http://www.w3.org/2000/svg" viewBox="0 0 24 24" id="h-3">
    <path fill="none" d="M0 0H24V24H0z"></path>
    <path d="M22 8l-.002 2-2.505 2.883c1.59.435 2.757 1.89 2.757 3.617 0 2.071-1.679 3.75-3.75 3.75-1.826 0-3.347-1.305-3.682-3.033l1.964-.382c.156.806.866 1.415 1.718 1.415.966 0 1.75-.784 1.75-1.75s-.784-1.75-1.75-1.75c-.286 0-.556.069-.794.19l-1.307-1.547L19.35 10H15V8h7zM4 4v7h7V4h2v16h-2v-7H4v7H2V4h2z" ></path>
  </symbol>
  <symbol xmlns="http://www.w3.org/2000/svg" viewBox="0 0 24 24" id="h-4">
    <path fill="none" d="M0 0H24V24H0z"></path>
    <path d="M13 20h-2v-7H4v7H2V4h2v7h7V4h2v16zm9-12v8h1.5v2H22v2h-2v-2h-5.5v-1.34l5-8.66H22zm-2 3.133L17.19 16H20v-4.867z" ></path>
  </symbol>
  <symbol xmlns="http://www.w3.org/2000/svg" viewBox="0 0 24 24" id="h-5">
    <path fill="none" d="M0 0H24V24H0z"></path>
    <path d="M22 8v2h-4.323l-.464 2.636c.33-.089.678-.136 1.037-.136 2.21 0 4 1.79 4 4s-1.79 4-4 4c-1.827 0-3.367-1.224-3.846-2.897l1.923-.551c.24.836 1.01 1.448 1.923 1.448 1.105 0 2-.895 2-2s-.895-2-2-2c-.63 0-1.193.292-1.56.748l-1.81-.904L16 8h6zM4 4v7h7V4h2v16h-2v-7H4v7H2V4h2z" ></path>
  </symbol>
  <symbol xmlns="http://www.w3.org/2000/svg" viewBox="0 0 24 24" id="h-6">
    <path fill="none" d="M0 0H24V24H0z"></path>
    <path d="M21.097 8l-2.598 4.5c2.21 0 4.001 1.79 4.001 4s-1.79 4-4 4-4-1.79-4-4c0-.736.199-1.426.546-2.019L18.788 8h2.309zM4 4v7h7V4h2v16h-2v-7H4v7H2V4h2zm14.5 10.5c-1.105 0-2 .895-2 2s.895 2 2 2 2-.895 2-2-.895-2-2-2z" ></path>
  </symbol>
  <symbol xmlns="http://www.w3.org/2000/svg" viewBox="0 0 24 24" id="heading">
    <path fill="none" d="M0 0h24v24H0z"></path>
    <path d="M17 11V4h2v17h-2v-8H7v8H5V4h2v7z" ></path>
  </symbol>
  <symbol xmlns="http://www.w3.org/2000/svg" viewBox="0 0 24 24" id="italic">
    <path fill="none" d="M0 0h24v24H0z"></path>
    <path d="M15 20H7v-2h2.927l2.116-12H9V4h8v2h-2.927l-2.116 12H15z" ></path>
  </symbol>
  <symbol xmlns="http://www.w3.org/2000/svg" viewBox="0 0 24 24" id="link">
    <path fill="none" d="M0 0h24v24H0z"></path>
    <path d="M18.364 15.536L16.95 14.12l1.414-1.414a5 5 0 1 0-7.071-7.071L9.879 7.05 8.464 5.636 9.88 4.222a7 7 0 0 1 9.9 9.9l-1.415 1.414zm-2.828 2.828l-1.415 1.414a7 7 0 0 1-9.9-9.9l1.415-1.414L7.05 9.88l-1.414 1.414a5 5 0 1 0 7.071 7.071l1.414-1.414 1.415 1.414zm-.708-10.607l1.415 1.415-7.071 7.07-1.415-1.414 7.071-7.07z" ></path>
  </symbol>
  <symbol xmlns="http://www.w3.org/2000/svg" viewBox="0 0 24 24" id="link-unlink">
    <path fill="none" d="M0 0h24v24H0z"></path>
    <path d="M17 17h5v2h-3v3h-2v-5zM7 7H2V5h3V2h2v5zm11.364 8.536L16.95 14.12l1.414-1.414a5 5 0 1 0-7.071-7.071L9.879 7.05 8.464 5.636 9.88 4.222a7 7 0 0 1 9.9 9.9l-1.415 1.414zm-2.828 2.828l-1.415 1.414a7 7 0 0 1-9.9-9.9l1.415-1.414L7.05 9.88l-1.414 1.414a5 5 0 1 0 7.071 7.071l1.414-1.414 1.415 1.414zm-.708-10.607l1.415 1.415-7.071 7.07-1.415-1.414 7.071-7.07z" ></path>
  </symbol>
  <symbol xmlns="http://www.w3.org/2000/svg" viewBox="0 0 24 24" id="list-check">
    <path fill="none" d="M0 0h24v24H0z"></path>
    <path d="M8 4h13v2H8V4zm-5-.5h3v3H3v-3zm0 7h3v3H3v-3zm0 7h3v3H3v-3zM8 11h13v2H8v-2zm0 7h13v2H8v-2z" ></path>
  </symbol>
  <symbol xmlns="http://www.w3.org/2000/svg" viewBox="0 0 24 24" id="list-check-2">
    <path fill="none" d="M0 0h24v24H0z"></path>
    <path d="M11 4h10v2H11V4zm0 4h6v2h-6V8zm0 6h10v2H11v-2zm0 4h6v2h-6v-2zM3 4h6v6H3V4zm2 2v2h2V6H5zm-2 8h6v6H3v-6zm2 2v2h2v-2H5z" ></path>
  </symbol>
  <symbol xmlns="http://www.w3.org/2000/svg" viewBox="0 0 24 24" id="list-ordered">
    <path fill="none" d="M0 0h24v24H0z"></path>
    <path d="M8 4h13v2H8V4zM5 3v3h1v1H3V6h1V4H3V3h2zM3 14v-2.5h2V11H3v-1h3v2.5H4v.5h2v1H3zm2 5.5H3v-1h2V18H3v-1h3v4H3v-1h2v-.5zM8 11h13v2H8v-2zm0 7h13v2H8v-2z" ></path>
  </symbol>
  <symbol xmlns="http://www.w3.org/2000/svg" viewBox="0 0 24 24" id="list-unordered">
    <path fill="none" d="M0 0h24v24H0z"></path>
    <path d="M8 4h13v2H8V4zM4.5 6.5a1.5 1.5 0 1 1 0-3 1.5 1.5 0 0 1 0 3zm0 7a1.5 1.5 0 1 1 0-3 1.5 1.5 0 0 1 0 3zm0 6.9a1.5 1.5 0 1 1 0-3 1.5 1.5 0 0 1 0 3zM8 11h13v2H8v-2zm0 7h13v2H8v-2z" ></path>
  </symbol>
  <symbol xmlns="http://www.w3.org/2000/svg" viewBox="0 0 24 24" id="mark-pen-line">
    <path fill="none" d="M0 0h24v24H0z"></path>
    <path d="M15.243 4.515l-6.738 6.737-.707 2.121-1.04 1.041 2.828 2.829 1.04-1.041 2.122-.707 6.737-6.738-4.242-4.242zm6.364 3.535a1 1 0 0 1 0 1.414l-7.779 7.779-2.12.707-1.415 1.414a1 1 0 0 1-1.414 0l-4.243-4.243a1 1 0 0 1 0-1.414l1.414-1.414.707-2.121 7.779-7.779a1 1 0 0 1 1.414 0l5.657 5.657zm-6.364-.707l1.414 1.414-4.95 4.95-1.414-1.414 4.95-4.95zM4.283 16.89l2.828 2.829-1.414 1.414-4.243-1.414 2.828-2.829z" ></path>
  </symbol>
  <symbol xmlns="http://www.w3.org/2000/svg" viewBox="0 0 24 24" id="separator">
    <path fill="none" d="M0 0h24v24H0z"></path>
    <path d="M2 11h2v2H2v-2zm4 0h12v2H6v-2zm14 0h2v2h-2v-2z" ></path>
  </symbol>
  <symbol xmlns="http://www.w3.org/2000/svg" viewBox="0 0 24 24" id="table-2">
    <path fill="none" d="M0 0h24v24H0z"></path>
    <path d="M13 10v4h6v-4h-6zm-2 0H5v4h6v-4zm2 9h6v-3h-6v3zm-2 0v-3H5v3h6zm2-14v3h6V5h-6zm-2 0H5v3h6V5zM4 3h16a1 1 0 0 1 1 1v16a1 1 0 0 1-1 1H4a1 1 0 0 1-1-1V4a1 1 0 0 1 1-1z" ></path>
  </symbol>
  <symbol xmlns="http://www.w3.org/2000/svg" viewBox="0 0 24 24" id="strikethrough">
    <path fill="none" d="M0 0h24v24H0z"></path>
    <path d="M17.154 14c.23.516.346 1.09.346 1.72 0 1.342-.524 2.392-1.571 3.147C14.88 19.622 13.433 20 11.586 20c-1.64 0-3.263-.381-4.87-1.144V16.6c1.52.877 3.075 1.316 4.666 1.316 2.551 0 3.83-.732 3.839-2.197a2.21 2.21 0 0 0-.648-1.603l-.12-.117H3v-2h18v2h-3.846zm-4.078-3H7.629a4.086 4.086 0 0 1-.481-.522C6.716 9.92 6.5 9.246 6.5 8.452c0-1.236.466-2.287 1.397-3.153C8.83 4.433 10.271 4 12.222 4c1.471 0 2.879.328 4.222.984v2.152c-1.2-.687-2.515-1.03-3.946-1.03-2.48 0-3.719.782-3.719 2.346 0 .42.218.786.654 1.099.436.313.974.562 1.613.75.62.18 1.297.414 2.03.699z" ></path>
  </symbol>
  <symbol xmlns="http://www.w3.org/2000/svg" viewBox="0 0 24 24" id="text">
    <path fill="none" d="M0 0h24v24H0z"></path>
    <path d="M13 6v15h-2V6H5V4h14v2z" ></path>
  </symbol>
  <symbol xmlns="http://www.w3.org/2000/svg" viewBox="0 0 24 24" id="text-wrap">
    <path fill="none" d="M0 0h24v24H0z"></path>
    <path d="M15 18h1.5a2.5 2.5 0 1 0 0-5H3v-2h13.5a4.5 4.5 0 1 1 0 9H15v2l-4-3 4-3v2zM3 4h18v2H3V4zm6 14v2H3v-2h6z" ></path>
  </symbol>
  <symbol xmlns="http://www.w3.org/2000/svg" viewBox="0 0 24 24" id="underline">
    <path fill="none" d="M0 0h24v24H0z"></path>
    <path d="M8 3v9a4 4 0 1 0 8 0V3h2v9a6 6 0 1 1-12 0V3h2zM4 20h16v2H4v-2z" ></path>
  </symbol>
  <symbol xmlns="http://www.w3.org/2000/svg" viewBox="0 0 24 24" id="align-center">
    <path fill="none" d="M0 0h24v24H0z"></path>
    <path d="M3 4h18v2H3V4zm2 15h14v2H5v-2zm-2-5h18v2H3v-2zm2-5h14v2H5V9z" ></path>
  </symbol>
  <symbol xmlns="http://www.w3.org/2000/svg" viewBox="0 0 24 24" id="align-justify">
    <path fill="none" d="M0 0h24v24H0z"></path>
    <path d="M3 4h18v2H3V4zm0 15h18v2H3v-2zm0-5h18v2H3v-2zm0-5h18v2H3V9z" ></path>
  </symbol>
  <symbol xmlns="http://www.w3.org/2000/svg" viewBox="0 0 24 24" id="align-left">
    <path fill="none" d="M0 0h24v24H0z"></path>
    <path d="M3 4h18v2H3V4zm0 15h14v2H3v-2zm0-5h18v2H3v-2zm0-5h14v2H3V9z" ></path>
  </symbol>
  <symbol xmlns="http://www.w3.org/2000/svg" viewBox="0 0 24 24" id="align-right">
    <path fill="none" d="M0 0h24v24H0z"></path>
    <path d="M3 4h18v2H3V4zm4 15h14v2H7v-2zm-4-5h18v2H3v-2zm4-5h14v2H7V9z" ></path>
  </symbol>
  <symbol xmlns="http://www.w3.org/2000/svg" viewBox="0 0 24 24" id="bold">
    <path fill="none" d="M0 0h24v24H0z"></path>
    <path d="M8 11h4.5a2.5 2.5 0 1 0 0-5H8v5zm10 4.5a4.5 4.5 0 0 1-4.5 4.5H6V4h6.5a4.5 4.5 0 0 1 3.256 7.606A4.498 4.498 0 0 1 18 15.5zM8 13v5h5.5a2.5 2.5 0 1 0 0-5H8z" ></path>
  </symbol>
  <symbol xmlns="http://www.w3.org/2000/svg" viewBox="0 0 24 24" id="code-box-line">
    <path fill="none" d="M0 0h24v24H0z"></path>
    <path d="M3 3h18a1 1 0 0 1 1 1v16a1 1 0 0 1-1 1H3a1 1 0 0 1-1-1V4a1 1 0 0 1 1-1zm1 2v14h16V5H4zm16 7l-3.536 3.536-1.414-1.415L17.172 12 15.05 9.879l1.414-1.415L20 12zM6.828 12l2.122 2.121-1.414 1.415L4 12l3.536-3.536L8.95 9.88 6.828 12zm4.416 5H9.116l3.64-10h2.128l-3.64 10z" ></path>
  </symbol>
  <symbol xmlns="http://www.w3.org/2000/svg" viewBox="0 0 24 24" id="code-view">
    <path fill="none" d="M0 0h24v24H0z"></path>
    <path d="M16.95 8.464l1.414-1.414 4.95 4.95-4.95 4.95-1.414-1.414L20.485 12 16.95 8.464zm-9.9 0L3.515 12l3.535 3.536-1.414 1.414L.686 12l4.95-4.95L7.05 8.464z" ></path>
  </symbol>
  <symbol xmlns="http://www.w3.org/2000/svg" viewBox="0 0 24 24" id="format-clear">
    <path fill="none" d="M0 0h24v24H0z"></path>
    <path d="M12.651 14.065L11.605 20H9.574l1.35-7.661-7.41-7.41L4.93 3.515 20.485 19.07l-1.414 1.414-6.42-6.42zm-.878-6.535l.27-1.53h-1.8l-2-2H20v2h-5.927L13.5 9.257 11.773 7.53z" ></path>
  </symbol>
  <symbol xmlns="http://www.w3.org/2000/svg" viewBox="0 0 24 24" id="filter-off-line">
    <path fill="none" d="M0 0H24V24H0z"></path>
    <path d="M6.929.515L21.07 14.657l-1.414 1.414-3.823-3.822L15 13.5V22H9v-8.5L4 6H3V4h4.585l-2.07-2.071L6.929.515zM9.585 6H6.404L11 12.894V20h2v-7.106l1.392-2.087L9.585 6zM21 4v2h-1l-1.915 2.872-1.442-1.443L17.596 6h-2.383l-2-2H21z" ></path>
  </symbol>
  <symbol xmlns="http://www.w3.org/2000/svg" viewBox="0 0 24 24" id="paragraph">
    <path fill="none" d="M0 0h24v24H0z"></path>
    <path d="M12 6v15h-2v-5a6 6 0 1 1 0-12h10v2h-3v15h-2V6h-3zm-2 0a4 4 0 1 0 0 8V6z" ></path>
  </symbol>
  <symbol xmlns="http://www.w3.org/2000/svg" viewBox="0 0 24 24" id="double-quotes-l">
    <path fill="none" d="M0 0h24v24H0z"></path>
    <path d="M4.583 17.321C3.553 16.227 3 15 3 13.011c0-3.5 2.457-6.637 6.03-8.188l.893 1.378c-3.335 1.804-3.987 4.145-4.247 5.621.537-.278 1.24-.375 1.929-.311 1.804.167 3.226 1.648 3.226 3.489a3.5 3.5 0 0 1-3.5 3.5c-1.073 0-2.099-.49-2.748-1.179zm10 0C13.553 16.227 13 15 13 13.011c0-3.5 2.457-6.637 6.03-8.188l.893 1.378c-3.335 1.804-3.987 4.145-4.247 5.621.537-.278 1.24-.375 1.929-.311 1.804.167 3.226 1.648 3.226 3.489a3.5 3.5 0 0 1-3.5 3.5c-1.073 0-2.099-.49-2.748-1.179z" ></path>
  </symbol>
  <symbol xmlns="http://www.w3.org/2000/svg" viewBox="0 0 24 24" id="arrow-go-back-line">
    <path fill="none" d="M0 0h24v24H0z"></path>
    <path d="M5.828 7l2.536 2.536L6.95 10.95 2 6l4.95-4.95 1.414 1.414L5.828 5H13a8 8 0 1 1 0 16H4v-2h9a6 6 0 1 0 0-12H5.828z" ></path>
  </symbol>
  <symbol xmlns="http://www.w3.org/2000/svg" viewBox="0 0 24 24" id="arrow-go-forward-line">
    <path fill="none" d="M0 0h24v24H0z"></path>
    <path d="M18.172 7H11a6 6 0 1 0 0 12h9v2h-9a8 8 0 1 1 0-16h7.172l-2.536-2.536L17.05 1.05 22 6l-4.95 4.95-1.414-1.414L18.172 7z" ></path>
  </symbol>

  <!-- Other -->
  <symbol xmlns="http://www.w3.org/2000/svg" viewBox="0 0 24 24" id="account-circle-fill">
    <path fill="none" d="M0 0h24v24H0z"></path>
    <path d="M12 2c5.52 0 10 4.48 10 10s-4.48 10-10 10S2 17.52 2 12 6.48 2 12 2zM6.023 15.416C7.491 17.606 9.695 19 12.16 19c2.464 0 4.669-1.393 6.136-3.584A8.968 8.968 0 0 0 12.16 13a8.968 8.968 0 0 0-6.137 2.416zM12 11a3 3 0 1 0 0-6 3 3 0 0 0 0 6z"></path>
  </symbol>
  <symbol version="1.1" id="close-line" xmlns="http://www.w3.org/2000/svg" xmlns:xlink="http://www.w3.org/1999/xlink" x="0px" y="0px" enable-background="new 0 0 122.878 122.88" xml:space="preserve" viewBox="0 0 122.878 122.88">
    <g>
      <path d="M1.426,8.313c-1.901-1.901-1.901-4.984,0-6.886c1.901-1.902,4.984-1.902,6.886,0l53.127,53.127l53.127-53.127 c1.901-1.902,4.984-1.902,6.887,0c1.901,1.901,1.901,4.985,0,6.886L68.324,61.439l53.128,53.128c1.901,1.901,1.901,4.984,0,6.886 c-1.902,1.902-4.985,1.902-6.887,0L61.438,68.326L8.312,121.453c-1.901,1.902-4.984,1.902-6.886,0 c-1.901-1.901-1.901-4.984,0-6.886l53.127-53.128L1.426,8.313L1.426,8.313z"></path>
    </g>
  </symbol>
  <symbol version="1.1" id="previous-button" xmlns="http://www.w3.org/2000/svg" xmlns:xlink="http://www.w3.org/1999/xlink" x="0px" y="0px" xml:space="preserve" viewBox="0 0 122.88 122.88">
    <g>
      <path d="M84.93,4.66C77.69,1.66,69.75,0,61.44,0C44.48,0,29.11,6.88,18,18C12.34,23.65,7.77,30.42,4.66,37.95 C1.66,45.19,0,53.13,0,61.44c0,16.96,6.88,32.33,18,43.44c5.66,5.66,12.43,10.22,19.95,13.34c7.24,3,15.18,4.66,23.49,4.66 c8.31,0,16.25-1.66,23.49-4.66c7.53-3.12,14.29-7.68,19.95-13.34c5.66-5.66,10.22-12.43,13.34-19.95c3-7.24,4.66-15.18,4.66-23.49 c0-8.31-1.66-16.25-4.66-23.49c-3.12-7.53-7.68-14.29-13.34-19.95C99.22,12.34,92.46,7.77,84.93,4.66L84.93,4.66z M65.85,47.13 c2.48-2.52,2.45-6.58-0.08-9.05s-6.58-2.45-9.05,0.08L38.05,57.13c-2.45,2.5-2.45,6.49,0,8.98l18.32,18.62 c2.48,2.52,6.53,2.55,9.05,0.08c2.52-2.48,2.55-6.53,0.08-9.05l-7.73-7.85l22-0.13c3.54-0.03,6.38-2.92,6.35-6.46 c-0.03-3.54-2.92-6.38-6.46-6.35l-21.63,0.13L65.85,47.13L65.85,47.13z M80.02,16.55c5.93,2.46,11.28,6.07,15.76,10.55 c4.48,4.48,8.09,9.83,10.55,15.76c2.37,5.71,3.67,11.99,3.67,18.58c0,6.59-1.31,12.86-3.67,18.58 c-2.46,5.93-6.07,11.28-10.55,15.76c-4.48,4.48-9.83,8.09-15.76,10.55C74.3,108.69,68.03,110,61.44,110s-12.86-1.31-18.58-3.67 c-5.93-2.46-11.28-6.07-15.76-10.55c-4.48-4.48-8.09-9.82-10.55-15.76c-2.37-5.71-3.67-11.99-3.67-18.58 c0-6.59,1.31-12.86,3.67-18.58c2.46-5.93,6.07-11.28,10.55-15.76c4.48-4.48,9.83-8.09,15.76-10.55c5.71-2.37,11.99-3.67,18.58-3.67 C68.03,12.88,74.3,14.19,80.02,16.55L80.02,16.55z"></path>
    </g>
  </symbol>
  <symbol xmlns="http://www.w3.org/2000/svg" viewBox="0 0 24 24" id="logout-circle-line">
    <path fill="none" d="M0 0h24v24H0z"></path>
    <path d="M5 11h8v2H5v3l-5-4 5-4v3zm-1 7h2.708a8 8 0 1 0 0-12H4A9.985 9.985 0 0 1 12 2c5.523 0 10 4.477 10 10s-4.477 10-10 10a9.985 9.985 0 0 1-8-4z"></path>
  </symbol>
  <symbol xmlns="http://www.w3.org/2000/svg" viewBox="0 0 24 24" id="moon-line">
    <path fill="none" d="M0 0h24v24H0z"></path>
    <path d="M10 7a7 7 0 0 0 12 4.9v.1c0 5.523-4.477 10-10 10S2 17.523 2 12 6.477 2 12 2h.1A6.979 6.979 0 0 0 10 7zm-6 5a8 8 0 0 0 15.062 3.762A9 9 0 0 1 8.238 4.938 7.999 7.999 0 0 0 4 12z"></path>
  </symbol>
  <symbol xmlns="http://www.w3.org/2000/svg" viewBox="0 0 24 24" id="sun-line">
    <path fill="none" d="M0 0h24v24H0z"></path>
    <path d="M12 18a6 6 0 1 1 0-12 6 6 0 0 1 0 12zm0-2a4 4 0 1 0 0-8 4 4 0 0 0 0 8zM11 1h2v3h-2V1zm0 19h2v3h-2v-3zM3.515 4.929l1.414-1.414L7.05 5.636 5.636 7.05 3.515 4.93zM16.95 18.364l1.414-1.414 2.121 2.121-1.414 1.414-2.121-2.121zm2.121-14.85l1.414 1.415-2.121 2.121-1.414-1.414 2.121-2.121zM5.636 16.95l1.414 1.414-2.121 2.121-1.414-1.414 2.121-2.121zM23 11v2h-3v-2h3zM4 11v2H1v-2h3z"></path>
  </symbol>
  <symbol xmlns="http://www.w3.org/2000/svg" viewBox="0 0 24 24" id="newspaper-line">
    <path fill="none" d="M0 0h24v24H0z"></path>
    <path d="M16 20V4H4v15a1 1 0 0 0 1 1h11zm3 2H5a3 3 0 0 1-3-3V3a1 1 0 0 1 1-1h14a1 1 0 0 1 1 1v7h4v9a3 3 0 0 1-3 3zm-1-10v7a1 1 0 0 0 2 0v-7h-2zM6 6h6v6H6V6zm2 2v2h2V8H8zm-2 5h8v2H6v-2zm0 3h8v2H6v-2z"></path>
  </symbol>
  <symbol xmlns="http://www.w3.org/2000/svg" viewBox="0 0 24 24" id="hand-coin-line">
    <path fill="none" d="M0 0h24v24H0z"></path>
    <path d="M5 9a1 1 0 0 1 1 1 6.97 6.97 0 0 1 4.33 1.5h2.17c1.333 0 2.53.58 3.354 1.5H19a5 5 0 0 1 4.516 2.851C21.151 18.972 17.322 21 13 21c-2.79 0-5.15-.603-7.06-1.658A.998.998 0 0 1 5 20H2a1 1 0 0 1-1-1v-9a1 1 0 0 1 1-1h3zm1.001 3L6 17.022l.045.032C7.84 18.314 10.178 19 13 19c3.004 0 5.799-1.156 7.835-3.13l.133-.133-.12-.1a2.994 2.994 0 0 0-1.643-.63L19 15h-2.111c.072.322.111.656.111 1v1H8v-2l6.79-.001-.034-.078a2.501 2.501 0 0 0-2.092-1.416L12.5 13.5H9.57A4.985 4.985 0 0 0 6.002 12zM4 11H3v7h1v-7zm14-6a3 3 0 1 1 0 6 3 3 0 0 1 0-6zm0 2a1 1 0 1 0 0 2 1 1 0 0 0 0-2zm-7-5a3 3 0 1 1 0 6 3 3 0 0 1 0-6zm0 2a1 1 0 1 0 0 2 1 1 0 0 0 0-2z"></path>
  </symbol>
  <symbol xmlns="http://www.w3.org/2000/svg" viewBox="0 0 24 24" id="wallet-3-line">
    <path fill="none" d="M0 0h24v24H0z"></path>
    <path d="M22 7h1v10h-1v3a1 1 0 0 1-1 1H3a1 1 0 0 1-1-1V4a1 1 0 0 1 1-1h18a1 1 0 0 1 1 1v3zm-2 10h-6a5 5 0 0 1 0-10h6V5H4v14h16v-2zm1-2V9h-7a3 3 0 0 0 0 6h7zm-7-4h3v2h-3v-2z"></path>
  </symbol>
  <symbol xmlns="http://www.w3.org/2000/svg" viewBox="0 0 24 24" id="folder-user-line">
    <path fill="none" d="M0 0h24v24H0z"></path>
    <path d="M12.414 5H21a1 1 0 0 1 1 1v14a1 1 0 0 1-1 1H3a1 1 0 0 1-1-1V4a1 1 0 0 1 1-1h7.414l2 2zM4 5v14h16V7h-8.414l-2-2H4zm4 13a4 4 0 1 1 8 0H8zm4-5a2.5 2.5 0 1 1 0-5 2.5 2.5 0 0 1 0 5z"></path>
  </symbol>
</svg>

</svg>